<svg xmlns="http://www.w3.org/2000/svg" width="512" height="284" viewBox="0 0 512 284" version="1.1"><path d="" stroke="none" fill="#000000" fill-rule="evenodd"/><path d="M 7.211 181.611 C 6.501 182.375, 5.376 182.993, 4.711 182.985 C 3.955 182.975, 4.060 182.616, 4.990 182.027 C 6.076 181.341, 5.669 181.172, 3.490 181.404 C 0.500 181.723, 0.500 181.723, 0.241 232.861 C -0.018 284, -0.018 284, 14.991 284 C 30 284, 30 284, 30 237.300 C 30 211.615, 30.375 191.028, 30.833 191.550 C 31.292 192.073, 39.907 212.863, 49.977 237.750 C 68.288 283, 68.288 283, 78.894 282.997 C 89.500 282.995, 89.500 282.995, 108 237.624 C 126.500 192.254, 126.500 192.254, 127 237.877 C 127.500 283.500, 127.500 283.500, 142.750 283.776 C 158 284.052, 158 284.052, 158 235.161 C 158 187.213, 157.960 186.219, 155.927 183.635 C 153.986 181.166, 151.148 179.813, 152.500 182 C 153.642 183.848, 152.006 185.021, 150.018 183.779 C 148.979 183.131, 148.363 182.222, 148.648 181.760 C 148.934 181.298, 147.892 181.226, 146.334 181.601 C 142.742 182.464, 142.103 183, 144.667 183 C 145.767 183, 146.667 183.600, 146.667 184.333 C 146.667 185.067, 146.086 185.667, 145.377 185.667 C 144.668 185.667, 144.320 185.292, 144.603 184.833 C 144.886 184.375, 144.529 183.966, 143.809 183.923 C 143.089 183.881, 141.744 183.701, 140.819 183.522 C 139.895 183.343, 138.910 183.793, 138.630 184.521 C 138.134 185.814, 133.984 185.463, 134.154 184.143 C 134.200 183.789, 134.177 182.600, 134.103 181.500 C 134 179.958, 133.769 179.816, 133.096 180.878 C 132.588 181.681, 131.695 181.930, 130.957 181.474 C 130.133 180.964, 129.940 181.094, 130.405 181.845 C 130.866 182.592, 130.302 182.995, 128.809 182.985 C 126.904 182.972, 126.762 182.784, 128 181.909 C 129.333 180.966, 129.333 180.898, 128 181.299 C 127.175 181.547, 126.612 182.256, 126.750 182.875 C 126.887 183.494, 126.298 184, 125.441 184 C 124.450 184, 124.162 183.545, 124.652 182.750 C 125.076 182.063, 124.218 182.287, 122.747 183.250 C 119.367 185.460, 119.030 185.441, 119.487 183.067 C 119.754 181.684, 119.331 181.175, 117.999 181.275 C 116.976 181.352, 116.359 181.772, 116.628 182.208 C 116.898 182.643, 116.529 183.007, 115.809 183.015 C 114.858 183.026, 114.910 183.296, 116 184 C 116.825 184.533, 116.992 184.976, 116.372 184.985 C 115.752 184.993, 114.518 183.988, 113.631 182.750 C 112.696 181.446, 112.119 181.131, 112.259 182 C 112.561 183.877, 109.209 183.453, 106.813 181.312 C 104.723 179.444, 102.650 180.554, 103.335 183.174 C 103.689 184.526, 103.180 185.390, 101.672 185.998 C 100.478 186.479, 99.950 186.909, 100.500 186.952 C 101.104 186.999, 101.072 187.321, 100.417 187.765 C 99.821 188.169, 94.890 199.194, 89.459 212.264 C 84.028 225.334, 79.185 235.895, 78.697 235.732 C 78.210 235.570, 73.586 225.326, 68.423 212.968 C 63.259 200.611, 58.271 188.925, 57.337 187 C 56.403 185.075, 55.705 183.210, 55.785 182.856 C 56 181.898, 48.702 182.447, 46.984 183.517 C 44.459 185.091, 42 185.079, 42 183.494 C 42 181.462, 40.327 181.608, 39.080 183.750 C 38.519 184.713, 38.047 184.990, 38.030 184.367 C 38.014 183.743, 37.134 183.007, 36.075 182.730 C 34.638 182.354, 34.279 182.642, 34.659 183.863 C 35 184.962, 34.511 184.759, 33.169 183.244 C 31.751 181.644, 31 181.354, 30.585 182.244 C 30.118 183.247, 29.883 183.248, 29.417 182.250 C 29.096 181.563, 28.083 181.007, 27.167 181.015 C 25.871 181.027, 25.797 181.219, 26.835 181.877 C 27.844 182.517, 27.647 182.859, 26.023 183.284 C 24.707 183.628, 23.676 183.319, 23.356 182.486 C 23.069 181.738, 22.197 181.371, 21.417 181.670 C 20.638 181.969, 20 181.730, 20 181.138 C 20 180.547, 19.325 180.322, 18.500 180.638 C 17.675 180.955, 17.007 181.953, 17.015 182.857 C 17.029 184.283, 17.159 184.302, 18 183 C 18.828 181.718, 18.972 181.754, 18.985 183.250 C 19.005 185.537, 16.024 185.537, 15.921 183.250 C 15.878 182.287, 15.623 182.039, 15.355 182.698 C 14.979 183.624, 14.256 183.628, 12.184 182.719 C 10.708 182.071, 9.275 181.244, 9 180.881 C 8.725 180.518, 7.920 180.847, 7.211 181.611 M 46.571 181.571 C 45.512 182.346, 44.839 183.172, 45.075 183.408 C 45.310 183.644, 46.370 183.203, 47.429 182.429 C 48.488 181.654, 49.161 180.828, 48.925 180.592 C 48.690 180.356, 47.630 180.797, 46.571 181.571 M 183.379 182.235 C 183.446 183.481, 183.950 184.831, 184.500 185.235 C 185.119 185.690, 185.024 185.975, 184.250 185.985 C 183.267 185.997, 183 196.475, 183 235 C 183 284, 183 284, 232.530 284 C 282.060 284, 282.060 284, 281.780 271.250 C 281.500 258.500, 281.500 258.500, 247.750 258.237 C 214 257.973, 214 257.973, 214 241.487 C 214 225, 214 225, 245 225 C 276 225, 276 225, 276 212 C 276 199, 276 199, 245 199 C 214 199, 214 199, 214 191 C 214 183, 214 183, 211.250 182.985 C 209.042 182.972, 208.795 182.763, 210 181.919 C 211.157 181.109, 210.956 181.023, 209.125 181.542 C 207.591 181.976, 206.446 181.734, 205.890 180.857 C 205.418 180.111, 205.024 179.957, 205.015 180.515 C 205.007 181.073, 202.725 181.634, 199.944 181.760 C 196.147 181.933, 195.067 181.680, 195.604 180.745 C 196.013 180.034, 195.936 179.852, 195.423 180.321 C 194.929 180.772, 194.520 181.858, 194.513 182.734 C 194.506 183.611, 193.825 184.513, 193 184.740 C 191.807 185.068, 191.773 184.960, 192.834 184.215 C 193.917 183.455, 193.870 183.164, 192.584 182.671 C 191.141 182.117, 190.520 183.100, 190.906 185.324 C 190.985 185.778, 190.649 185.901, 190.159 185.598 C 189.669 185.295, 189.439 183.799, 189.648 182.274 C 189.972 179.907, 189.889 179.793, 189.084 181.500 C 188.141 183.500, 188.141 183.500, 188.055 181.500 C 187.987 179.904, 187.786 179.790, 187.061 180.936 C 186.345 182.068, 185.846 182.117, 184.705 181.170 C 183.512 180.180, 183.279 180.366, 183.379 182.235 M 418.938 181.740 C 418.836 182.708, 418.696 206, 418.626 233.500 C 418.500 283.500, 418.500 283.500, 465.250 283.760 C 512 284.020, 512 284.020, 512 271.010 C 512 258, 512 258, 481 258 C 450 258, 450 258, 450 222.059 C 450 198.792, 449.642 185.897, 448.984 185.490 C 448.425 185.144, 448.207 184.474, 448.500 184 C 448.793 183.526, 448.575 182.856, 448.016 182.510 C 447.086 181.935, 446.553 183.288, 446.906 185.324 C 446.985 185.778, 446.649 185.901, 446.159 185.598 C 445.669 185.295, 445.439 183.799, 445.648 182.274 C 445.972 179.907, 445.889 179.793, 445.084 181.500 C 444.141 183.500, 444.141 183.500, 444.055 181.500 C 443.987 179.904, 443.786 179.790, 443.061 180.936 C 442.271 182.183, 441.921 182.183, 440.384 180.936 C 438.906 179.735, 438.755 179.731, 439.464 180.908 C 440.123 182, 439.817 182.185, 438.099 181.736 C 436.402 181.292, 436.129 181.450, 436.927 182.412 C 437.680 183.320, 437.570 183.667, 436.527 183.667 C 435.735 183.667, 434.856 183.067, 434.574 182.333 C 434.293 181.600, 433.486 181.007, 432.781 181.015 C 431.885 181.026, 431.951 181.322, 433 182 C 434 182.646, 434.083 182.974, 433.250 182.985 C 431.147 183.010, 430.568 183.161, 428.674 184.174 C 427.074 185.031, 426.980 184.907, 427.911 183.166 C 428.795 181.514, 428.682 181.237, 427.237 181.514 C 426.282 181.697, 425.500 181.916, 425.500 182 C 425.500 182.950, 421.626 182.483, 420.547 181.404 C 419.315 180.172, 419.098 180.217, 418.938 181.740 M 334.553 182.722 C 334.176 183.704, 333.593 184.026, 333.196 183.472 C 332.290 182.207, 329.703 182.224, 328.765 183.500 C 328.317 184.111, 328.025 183.990, 328.015 183.191 C 328.007 182.471, 327.570 182.148, 327.044 182.473 C 326.518 182.798, 326.330 183.837, 326.627 184.782 C 327.073 186.201, 326.848 186.152, 325.334 184.500 C 324.058 183.108, 322.283 182.520, 319.500 182.567 C 312.510 182.683, 311.682 182.892, 312.628 184.297 C 313.107 185.011, 312.824 184.898, 311.997 184.047 C 311.170 183.196, 309.370 182.386, 307.997 182.247 C 306.049 182.050, 305.830 182.211, 307 182.982 C 308.252 183.806, 308.170 183.984, 306.500 184.055 C 304.500 184.141, 304.500 184.141, 306.500 185 C 308.210 185.735, 308.246 185.870, 306.750 185.930 C 305.108 185.996, 305 189.027, 305 235 C 305 284, 305 284, 352 284 C 399 284, 399 284, 399 271 C 399 258, 399 258, 368.142 258 C 337.285 258, 337.285 258, 336.597 222.250 C 335.755 178.440, 335.824 181, 335.490 181 C 335.338 181, 334.917 181.775, 334.553 182.722" stroke="none" fill="#147e7d" fill-rule="evenodd"/><path d="M 307.216 1.958 C 284.374 8.133, 267.640 24.930, 260.803 48.545 C 258.780 55.531, 258.505 58.631, 258.538 74 C 258.575 91.107, 258.649 91.712, 261.834 100.946 C 268.854 121.294, 281.751 135.549, 298.964 141.987 C 305 144.244, 305 144.244, 305 164.122 C 305 182.393, 305.142 183.999, 306.750 183.985 C 308.249 183.972, 308.285 183.828, 307 182.982 C 305.830 182.211, 306.049 182.050, 307.997 182.247 C 309.370 182.386, 311.170 183.196, 311.997 184.047 C 312.824 184.898, 313.107 185.011, 312.628 184.297 C 311.682 182.892, 312.510 182.683, 319.500 182.567 C 322.283 182.520, 324.058 183.108, 325.334 184.500 C 326.848 186.152, 327.073 186.201, 326.627 184.782 C 326.330 183.837, 326.518 182.798, 327.044 182.473 C 327.570 182.148, 328.007 182.471, 328.015 183.191 C 328.025 183.990, 328.317 184.111, 328.765 183.500 C 329.799 182.093, 332.993 181.989, 333.032 183.361 C 333.049 183.988, 333.641 183.741, 334.346 182.813 C 335.420 181.400, 335.668 182.777, 335.872 191.287 C 336.355 211.500, 337 201.708, 337 174.167 C 337 146.209, 337.016 146, 339.102 146 C 340.259 146, 345.232 144.651, 350.155 143.001 C 358.281 140.279, 359.356 140.133, 361.830 141.412 C 371.179 146.247, 392.513 148.308, 405.518 145.634 C 409.908 144.731, 414.512 143.717, 415.750 143.380 C 418 142.767, 418 142.767, 418.015 164.133 C 418.025 177.049, 418.384 184.943, 418.923 184.091 C 419.413 183.316, 419.589 181.966, 419.313 181.091 C 418.929 179.873, 419.033 179.809, 419.756 180.816 C 420.275 181.541, 421.330 182.228, 422.100 182.345 C 422.870 182.461, 424.031 182.888, 424.681 183.294 C 425.330 183.700, 426.187 183.506, 426.585 182.862 C 427.076 182.068, 426.857 181.953, 425.905 182.506 C 425.132 182.954, 424.850 182.936, 425.279 182.465 C 425.707 181.994, 426.714 181.512, 427.516 181.395 C 428.670 181.225, 428.752 181.594, 427.911 183.166 C 426.980 184.907, 427.074 185.031, 428.674 184.174 C 430.568 183.161, 431.147 183.010, 433.250 182.985 C 434.083 182.974, 434 182.646, 433 182 C 431.951 181.322, 431.885 181.026, 432.781 181.015 C 433.486 181.007, 434.293 181.600, 434.574 182.333 C 434.856 183.067, 435.735 183.667, 436.527 183.667 C 437.570 183.667, 437.680 183.320, 436.927 182.412 C 436.129 181.450, 436.402 181.292, 438.099 181.736 C 439.817 182.185, 440.123 182, 439.464 180.908 C 438.755 179.731, 438.906 179.735, 440.384 180.936 C 441.921 182.183, 442.271 182.183, 443.061 180.936 C 443.786 179.790, 443.987 179.904, 444.055 181.500 C 444.141 183.500, 444.141 183.500, 445.084 181.500 C 445.889 179.793, 445.972 179.907, 445.648 182.274 C 445.439 183.799, 445.669 185.295, 446.159 185.598 C 446.649 185.901, 446.985 185.778, 446.906 185.324 C 446.553 183.288, 447.086 181.935, 448.016 182.510 C 448.575 182.856, 448.793 183.526, 448.500 184 C 448.207 184.474, 448.425 185.144, 448.984 185.490 C 449.661 185.908, 450 178.585, 450 163.559 C 450 141, 450 141, 435.773 141 C 421.546 141, 421.546 141, 427.893 137.250 C 439.695 130.277, 449.212 117.394, 452.523 103.907 C 453.388 100.383, 454.365 90.863, 454.693 82.750 C 455.291 68, 455.291 68, 425.225 68 C 391.204 68, 395.023 69.263, 393.467 57.500 C 392.565 50.682, 388.557 38.444, 385.469 33.082 C 382.200 27.405, 383.107 26.742, 393.304 27.352 C 406.370 28.133, 413.898 32.945, 419.572 44.143 C 422.034 49, 422.034 49, 437.517 49 C 455.497 49, 454.765 49.620, 450.623 37.887 C 444.192 19.668, 428.041 6.038, 407.457 1.458 C 395.868 -1.120, 378.088 -0.229, 367.500 3.461 C 363.100 4.994, 359.050 6.229, 358.500 6.205 C 357.950 6.181, 354.125 4.942, 350 3.452 C 343.502 1.105, 340.629 0.692, 328.500 0.365 C 316.875 0.052, 313.264 0.322, 307.216 1.958 M 0 91.418 C 0 140.598, 0.273 181.548, 0.607 182.418 C 0.941 183.288, 1.671 184, 2.229 184 C 2.905 184, 2.898 183.582, 2.208 182.750 C 1.428 181.809, 1.807 181.462, 3.739 181.346 C 5.589 181.235, 5.914 181.441, 4.903 182.081 C 4.020 182.640, 3.937 182.975, 4.679 182.985 C 5.327 182.993, 6.564 182.293, 7.429 181.429 C 8.293 180.564, 9 180.241, 9 180.709 C 9 182.190, 14.833 183.962, 15.373 182.645 C 15.631 182.015, 15.878 182.287, 15.921 183.250 C 15.964 184.213, 16.675 185, 17.500 185 C 18.325 185, 18.993 184.213, 18.985 183.250 C 18.972 181.754, 18.828 181.718, 18 183 C 17.159 184.302, 17.029 184.283, 17.015 182.857 C 17.007 181.953, 17.675 180.955, 18.500 180.638 C 19.325 180.322, 20 180.547, 20 181.138 C 20 181.730, 20.638 181.969, 21.417 181.670 C 22.197 181.371, 23.069 181.738, 23.356 182.486 C 23.676 183.319, 24.707 183.628, 26.023 183.284 C 27.647 182.859, 27.844 182.517, 26.835 181.877 C 25.797 181.219, 25.871 181.027, 27.167 181.015 C 28.083 181.007, 29.096 181.563, 29.417 182.250 C 29.883 183.248, 30.118 183.247, 30.585 182.244 C 31 181.354, 31.751 181.644, 33.169 183.244 C 34.511 184.759, 35 184.962, 34.659 183.863 C 34.279 182.642, 34.638 182.354, 36.075 182.730 C 37.134 183.007, 38.014 183.743, 38.030 184.367 C 38.047 184.990, 38.519 184.712, 39.080 183.750 C 40.327 181.608, 42 181.462, 42 183.494 C 42 185.167, 44.327 185.047, 47.684 183.201 C 48.885 182.541, 50.910 182.113, 52.184 182.250 C 53.458 182.388, 54.500 181.967, 54.500 181.315 C 54.500 180.664, 50.900 171.332, 46.500 160.577 C 38.500 141.023, 38.500 141.023, 34.750 141.011 C 31 141, 31 141, 31 120.119 C 31 99.237, 31 99.237, 50.250 98.722 C 63.215 98.375, 71.253 97.702, 74.869 96.662 C 93.060 91.431, 104.928 79.267, 108.560 62.131 C 114.450 34.340, 99.794 9.643, 73.769 3.508 C 68.895 2.358, 59.992 2.026, 33.750 2.015 C 0 2, 0 2, 0 91.418 M 129 71.444 C 129 141, 129 141, 124.130 141 C 119.260 141, 119.260 141, 110.005 163.042 C 104.915 175.165, 101.001 185.335, 101.308 185.642 C 102.401 186.734, 103.804 184.968, 103.319 183.112 C 102.648 180.544, 104.745 179.464, 106.813 181.312 C 109.209 183.453, 112.561 183.877, 112.259 182 C 112.119 181.131, 112.696 181.446, 113.631 182.750 C 114.518 183.988, 115.752 184.993, 116.372 184.985 C 116.992 184.976, 116.825 184.533, 116 184 C 114.910 183.296, 114.858 183.026, 115.809 183.015 C 116.529 183.007, 116.898 182.643, 116.628 182.208 C 116.359 181.772, 116.976 181.352, 117.999 181.275 C 119.331 181.175, 119.754 181.684, 119.487 183.067 C 119.030 185.441, 119.367 185.460, 122.747 183.250 C 124.608 182.033, 125.158 181.929, 124.555 182.908 C 123.869 184.020, 124.191 184.180, 126.094 183.671 C 127.417 183.317, 129.089 183.021, 129.809 183.014 C 130.542 183.006, 130.804 182.492, 130.405 181.845 C 129.940 181.094, 130.133 180.964, 130.957 181.474 C 131.695 181.930, 132.588 181.681, 133.096 180.878 C 133.769 179.816, 134 179.958, 134.103 181.500 C 134.177 182.600, 134.200 183.789, 134.154 184.143 C 133.984 185.463, 138.134 185.814, 138.630 184.521 C 138.910 183.793, 139.895 183.343, 140.819 183.522 C 141.744 183.701, 143.089 183.881, 143.809 183.923 C 144.529 183.966, 144.886 184.375, 144.603 184.833 C 144.320 185.292, 144.668 185.667, 145.377 185.667 C 146.086 185.667, 146.667 185.067, 146.667 184.333 C 146.667 183.600, 145.767 183, 144.667 183 C 142.103 183, 142.742 182.464, 146.334 181.601 C 147.892 181.226, 148.934 181.298, 148.648 181.760 C 148.363 182.222, 148.979 183.131, 150.018 183.779 C 152.006 185.021, 153.642 183.848, 152.500 182 C 151.148 179.813, 153.986 181.166, 155.927 183.635 C 158 186.270, 158 186.270, 158 165.635 C 158 147.959, 158.215 145, 159.500 145 C 160.793 145, 161 141.556, 161 120 C 161 95, 161 95, 171.887 95 C 182.774 95, 182.774 95, 195.286 118 C 207.798 141, 207.798 141, 195.365 141 C 182.932 141, 182.932 141, 183.040 161.333 C 183.137 179.642, 183.314 181.668, 184.824 181.682 C 185.746 181.691, 186.831 181.203, 187.235 180.599 C 187.675 179.940, 188.004 180.302, 188.055 181.500 C 188.141 183.500, 188.141 183.500, 189.084 181.500 C 189.889 179.793, 189.972 179.907, 189.648 182.274 C 189.439 183.799, 189.669 185.295, 190.159 185.598 C 190.649 185.901, 190.985 185.778, 190.906 185.324 C 190.520 183.100, 191.141 182.117, 192.584 182.671 C 193.870 183.164, 193.917 183.455, 192.834 184.215 C 191.773 184.960, 191.807 185.068, 193 184.740 C 193.825 184.513, 194.506 183.611, 194.513 182.734 C 194.520 181.858, 194.929 180.772, 195.423 180.321 C 195.936 179.852, 196.013 180.034, 195.604 180.745 C 195.067 181.680, 196.147 181.933, 199.944 181.760 C 202.725 181.634, 205.007 181.073, 205.015 180.515 C 205.024 179.957, 205.418 180.111, 205.890 180.857 C 206.446 181.734, 207.591 181.976, 209.125 181.542 C 210.956 181.023, 211.157 181.109, 210 181.919 C 208.795 182.763, 209.042 182.972, 211.250 182.985 C 214 183, 214 183, 214 174.500 C 214 166, 214 166, 247.500 166 C 281 166, 281 166, 281 153.500 C 281 141, 281 141, 261.738 141 C 242.476 141, 242.476 141, 228.488 115.834 C 220.795 101.992, 214.387 90.404, 214.250 90.082 C 214.112 89.760, 216.043 88.413, 218.541 87.088 C 224.992 83.665, 233.362 74.245, 236.136 67.285 C 238.104 62.347, 238.446 59.669, 238.471 49 C 238.496 38.344, 238.162 35.609, 236.206 30.459 C 231.630 18.408, 222.142 9.467, 209 4.824 C 202.748 2.616, 201.097 2.516, 165.750 2.208 C 129 1.887, 129 1.887, 129 71.444 M 31 50.500 C 31 74, 31 74, 42.951 74 C 57.310 74, 63.608 72.791, 68.787 69.039 C 79.314 61.414, 80.045 41.106, 70.095 32.733 C 65.033 28.474, 58.278 27, 43.818 27 C 31 27, 31 27, 31 50.500 M 161 47.893 C 161 69, 161 69, 175.250 68.994 C 191.123 68.988, 195.469 68.160, 200.111 64.253 C 208.195 57.451, 209.276 43.235, 202.336 34.987 C 197.146 28.819, 193.162 27.628, 176.250 27.185 C 161 26.786, 161 26.786, 161 47.893 M 314.403 29.045 C 306.012 31.706, 299.980 37.223, 295.521 46.315 C 291.242 55.041, 289.995 61.282, 290.015 73.886 C 290.047 95.009, 297.078 109.434, 310.577 116.077 C 314.469 117.992, 317.461 118.572, 324.867 118.850 C 330.019 119.043, 334.048 118.818, 333.822 118.351 C 333.596 117.883, 331.978 114.575, 330.228 111 C 324.479 99.257, 322.705 90.413, 322.705 73.500 C 322.705 56.362, 324.488 47.594, 330.430 35.517 C 332.901 30.495, 333.533 28.324, 332.683 27.783 C 330.513 26.403, 320.573 27.089, 314.403 29.045 M 357.135 52.500 C 353.440 65.306, 353.302 81.169, 356.789 92.598 C 358.589 98.500, 358.589 98.500, 360.252 92.500 C 363.695 80.080, 363.365 60.458, 359.563 51.500 C 358.290 48.500, 358.290 48.500, 357.135 52.500 M 391.597 98.166 C 390.581 102.108, 388.232 108.247, 386.375 111.809 C 384.519 115.370, 383 118.445, 383 118.642 C 383 118.839, 387.033 119, 391.962 119 C 398.511 119, 402.382 118.455, 406.333 116.976 C 415.552 113.527, 422.337 105.115, 423.655 95.503 C 424.272 91, 424.272 91, 408.857 91 C 393.443 91, 393.443 91, 391.597 98.166 M 46.571 181.571 C 45.512 182.346, 44.839 183.172, 45.075 183.408 C 45.310 183.644, 46.370 183.203, 47.429 182.429 C 48.488 181.654, 49.161 180.828, 48.925 180.592 C 48.690 180.356, 47.630 180.797, 46.571 181.571" stroke="none" fill="#1caaa8" fill-rule="evenodd"/></svg>